<?xml version="1.0" encoding="UTF-8" standalone="no"?>
<svg
   width="32"
   height="32"
   viewBox="0 0 2.4672768 2.4672768"
   version="1.1"
   id="svg46"
   sodipodi:docname="mpg.svg"
   inkscape:version="1.1.2 (0a00cf5339, 2022-02-04)"
   xmlns:inkscape="http://www.inkscape.org/namespaces/inkscape"
   xmlns:sodipodi="http://sodipodi.sourceforge.net/DTD/sodipodi-0.dtd"
   xmlns="http://www.w3.org/2000/svg"
   xmlns:svg="http://www.w3.org/2000/svg">
  <defs
     id="defs50" />
  <sodipodi:namedview
     id="namedview48"
     pagecolor="#ffffff"
     bordercolor="#666666"
     borderopacity="1.0"
     inkscape:pageshadow="2"
     inkscape:pageopacity="0.0"
     inkscape:pagecheckerboard="true"
     showgrid="false"
     inkscape:zoom="11.1744"
     inkscape:cx="7.8751432"
     inkscape:cy="23.133233"
     inkscape:window-width="1551"
     inkscape:window-height="1082"
     inkscape:window-x="736"
     inkscape:window-y="86"
     inkscape:window-maximized="0"
     inkscape:current-layer="g2061" />
  <g
     fill-rule="evenodd"
     clip-rule="evenodd"
     id="g44">
    <g
       id="g2061"
       transform="translate(0.06906723,0.08378312)">
      <path
         d="m 0.05598597,1.1484729 c 0,-0.60896643 0.49823202,-1.10998044 1.10997393,-1.10998044 0.6117418,0 1.1099596,0.50101401 1.1099596,1.10998044 0,0.6117455 -0.4982321,1.1127312 -1.1099596,1.1127312 -0.61172765,0 -1.10997393,-0.5009857 -1.10997393,-1.1127312 z m -0.03321843,0 c 0,0.631113 0.51208396,1.143186 1.14319316,1.143186 0.6283443,0 1.1404141,-0.512073 1.1404141,-1.143186 0,-0.62834834 -0.5120698,-1.14042124 -1.1404141,-1.14042124 -0.6311092,0 -1.14319316,0.5120729 -1.14319316,1.14042124 z"
         fill="#4c8175"
         stroke="#4c8175"
         stroke-width="1.25113"
         stroke-linecap="round"
         stroke-linejoin="round"
         stroke-miterlimit="2.613"
         id="path4"
         style="fill:#ffffff;fill-opacity:0.70380759;stroke:#ffffff;stroke-width:0.0294648;stroke-miterlimit:2.613;stroke-dasharray:none;stroke-opacity:0.70323652" />
      <path
         d="m 1.9160796,1.3366884 c -0.033205,0.02769 -0.077498,0.02769 -0.1107307,0.052601 -0.016588,0.016588 -0.013839,0.033206 -0.00551,0.055366 0.013839,0.024911 0.00551,0.022133 -0.011073,0.030454 -0.041528,0.013837 -0.041528,0.058116 -0.094114,0.052572 -0.00277,0 -0.013867,-0.00554 -0.00832,0.00276 0.00554,0.00832 0.00832,0.00277 0.019367,0.00277 0.019367,0.00276 0.024912,-0.00554 0.038777,-0.013838 0.019367,-0.016616 0.016588,-0.022161 0.038748,-0.033233 0.00554,0 0.019367,-0.00276 0.027662,-0.00276 0.00277,0.00554 0.00277,0.00554 0.00277,0.011074 0,0.011073 -0.019367,0.022133 -0.02769,0.024911 0.011073,0.00829 0.02769,0.019366 0.024911,0.030454 -0.00275,0.00554 -0.00275,0.00829 -0.011045,0.011044 -0.00832,0.00554 -0.030455,0.00554 -0.049851,-0.011044 -0.00275,0.00276 -0.00551,-0.00554 -0.013839,0.00276 0.019367,0.019368 0.044278,0.013837 0.047071,0.019368 0.00554,0.00277 -0.013838,0.02769 -0.013838,0.030454 -0.011073,0.035984 0.00275,0.066439 -0.00277,0.099644 -0.00275,0.02769 -0.011073,0.041527 -0.035984,0.058144 -0.044278,0.030426 -0.074733,0.038749 -0.1245545,0.047043 -0.1273206,0.0083 -0.2103758,-0.035981 -0.3016968,-0.1051849 -0.094128,-0.06919 -0.1300981,-0.105188 -0.1577879,-0.143937 0,-0.016616 0.011073,-0.02769 0,-0.047072 -0.0083,0.00554 -0.00554,0.016616 -0.011073,0.022161 -0.0083,0.011073 -0.024911,0.016616 -0.038748,0.016616 C 1.0607767,1.5359485 1.0580127,1.4916715 1.0358657,1.4667595 0.9832795,1.4169365 0.969427,1.3422044 0.9943524,1.2812949 c 0.0110737,-0.019368 0.027675,-0.035984 0.0498225,-0.044278 0.022145,-0.00275 0.049836,-0.00275 0.06366,0.022161 0.019382,0.016588 0.030455,0.044278 0.035984,0.069189 0.0083,0.013838 -0.00276,0.024911 0.011073,0.035984 0.022146,0.00276 0.041514,0.00829 0.060881,-0.00554 0.016617,0.00276 0.016617,0.019366 0.030455,0.027661 l 0.019367,0.011074 c 0.02216,0.011073 0.0526,0.011073 0.071983,-0.00554 0.035984,-0.035984 0.027662,-0.074733 0.038748,-0.1134821 0.033233,-0.030454 0.055364,-0.071983 0.055364,-0.1135108 -0.00275,-0.027662 -0.011073,-0.052573 -0.024911,-0.080263 0.00278,-0.013837 0.011073,-0.024911 0.013838,-0.038749 0.00554,0 0.011073,0 0.013867,-0.00276 0.038748,-0.0083 0.071954,-0.041527 0.08857,-0.0775117 l 0.00275,-0.002764 c 0.041528,-0.002764 0.096893,-0.0193824 0.1190536,-0.0636599 0.00551,-0.0193819 0.027661,-0.005543 0.0415,-0.008309 0.02216,-0.002764 0.047071,-0.0138379 0.060895,-0.0276757 0.00829,-0.002764 0.011073,0.002764 0.013838,0.005543 0.00832,0.0332195 0.02769,0.0636603 0.038776,0.0996442 0.013839,0.0249114 0.016588,0.0498228 0.013839,0.0747482 0.00275,0.038749 0.027662,0.077498 0.044278,0.1190256 0.013839,0.041528 0.041527,0.085806 0.058116,0.1273482 0.00277,0.016631 0.011073,0.030484 -1.23e-5,0.047072 z m 0.00832,-0.074733 c -0.030456,-0.069189 -0.063689,-0.1273201 -0.0886,-0.1992885 -0.019367,-0.024911 -0.00829,-0.052587 -0.011045,-0.0802767 -0.011073,-0.0387489 -0.02769,-0.0719685 -0.044307,-0.11348222 -0.00551,-0.0110733 0.00832,-0.013838 0.011073,-0.024911 0.00832,-0.0193819 0.00278,-0.0415281 -0.00554,-0.0636599 -0.00554,-0.0110733 0.00832,-0.0166172 0.00554,-0.027676 0,-0.0193671 -0.013838,-0.0332191 -0.027662,-0.0415276 -0.019367,-0.0276757 -0.02769,-0.0415138 -0.049822,-0.0664247 v -0.005543 c 0.011045,-0.008308 0.019367,-0.0276757 0.019367,-0.0442925 -0.00277,-0.0166172 -0.00832,-0.0332196 -0.024912,-0.0442785 -0.02769,-0.0166169 -0.0526,0.008308 -0.074733,0.0193815 -0.00832,0.005529 -0.011073,0.008294 -0.019367,0.008294 -0.00277,-0.002764 -0.011073,-0.002764 -0.016616,-0.005529 l -0.019367,0.0193814 0.024911,0.008309 c 0.00275,0.002764 0.00275,0.002764 0.00275,0.005529 -0.00275,0.002764 -0.060895,0.0525866 -0.060895,0.0525866 L 1.4400219,0.76373494 1.4095675,0.79418972 1.315439,0.9021421 C 1.265617,0.9575082 1.1936636,1.0516086 1.1493712,1.1208123 c -0.022146,0.03044 -0.044293,0.063674 -0.066439,0.09688 0,0.00277 -0.00553,0.00277 -0.011073,0.00277 h -0.013839 c -0.024925,0.00551 -0.041527,0.011045 -0.0581297,0.027662 -0.0276759,0.027661 -0.0387487,0.06366 -0.0387487,0.099644 0,0.027661 0.00555,0.052601 0.0193669,0.080276 -0.00555,0.013838 -0.0193669,0.027662 -0.027675,0.038749 l -0.005531,0.00554 -0.008307,0.00554 c -0.002765,0.00554 -0.008307,0.011074 -0.0138385,0.016616 0,0.00276 0,0.00554 0.002765,0.00829 h 0.005531 c 0.0221457,-0.00554 0.035984,-0.022161 0.0470578,-0.038749 l 0.0110728,-0.011074 c 0.002775,0 0.002775,0 0.008307,0.00276 0,0 0.002765,0.00277 0.002765,0.00554 v 0.00832 C 0.9500686,1.5221493 0.905777,1.5498533 0.85319049,1.5830586 l -0.0110738,0.00554 h 0.0110738 c 0.0221457,0.00276 0.0415275,-0.00829 0.0608944,-0.022161 l 0.0249103,-0.011045 c 0.0221471,-0.011053 0.0442796,-0.027671 0.0636605,-0.047053 L 1.0220386,1.4945 c 0.00276,0 0.00553,0 0.00553,0.00276 l 0.00277,0.00277 0.016617,0.033205 c -0.00277,0.016616 -0.00277,0.033204 -0.00277,0.047072 0,0.033205 0.00555,0.066411 0.013853,0.099644 0.00553,0.033206 0.013839,0.066411 0.013839,0.099644 v 0.00554 c 0,0.011045 -0.011074,0.024911 -0.022145,0.027662 -0.019367,0.00276 -0.044278,0.00276 -0.071968,0.00276 -0.0332194,0 -0.0664387,0.00277 -0.0941141,0.00832 -0.008307,0.00276 -0.0166172,0.00554 -0.027675,0.00829 -0.008307,0.00277 -0.0193669,0.00554 -0.0249103,0.00554 h -0.005531 l -0.002765,0.00277 c -0.002765,0.00276 -0.005531,0.00551 -0.005531,0.00829 h -0.002765 c 0,0.00554 0.002765,0.00829 0.00555,0.00829 0.002765,0.00277 0.002765,0.00277 0.005531,0.00277 0.008307,0 0.0166171,-0.00277 0.027675,-0.00554 0.002765,-0.00277 0.0110738,-0.00554 0.0166172,-0.00554 0.0553659,-0.011073 0.11348125,-0.00829 0.155009,-0.00277 0.019367,-0.00276 0.052587,-0.00276 0.063659,-0.030454 0.00555,-0.011045 0.00555,-0.022133 0.00555,-0.033205 0,-0.011073 0,-0.022132 -0.00276,-0.033205 l -0.00555,-0.027691 c 0,-0.016588 -0.00276,-0.033206 -0.0083,-0.049822 C 1.0719044,1.641146 1.0663804,1.610704 1.0663804,1.580278 V 1.563662 h 0.00276 c 0.00276,-0.00277 0.00276,0 0.00553,0.00276 0.00553,0.00277 0.0083,0.00554 0.011074,0.00554 0.00276,0.00277 0.0083,0.00277 0.011073,0.00277 0.00553,0 0.0083,0.00276 0.0083,0.00554 0.00276,0.027662 0.011073,0.055366 0.022146,0.080277 0.00554,0.019367 0.011073,0.038749 0.013838,0.058116 0.0083,0.030454 0.016616,0.06366 0.016616,0.094115 a 0.21034593,0.21034724 0 0 1 -0.0083,0.058122 c -0.013853,0.024911 -0.047057,0.024911 -0.074747,0.02769 H 1.0635974 L 0.9916292,1.893052 c -0.063659,-0.00554 -0.12455434,-0.011074 -0.19099291,0 l -0.0166105,0.00278 c -0.008307,0 -0.0166171,0.00277 -0.0249253,0 -0.002765,-0.00276 -0.002765,-0.00551 -0.002765,-0.011044 v -0.00554 c 0.0110728,-0.02491 0.0166172,-0.047072 0.0166172,-0.069189 0,-0.016617 -0.002775,-0.033235 -0.0110728,-0.044306 -0.0166162,-0.033206 -0.035984,-0.055338 -0.0581297,-0.071954 -0.027675,-0.02769 -0.0525862,-0.052601 -0.0747328,-0.080277 -0.0110738,0 -0.0193819,-0.00277 -0.0221457,-0.00277 l -0.0138385,0.013867 c 0.0166172,0.016588 0.0304547,0.030454 0.0498225,0.049822 0.027675,0.013838 0.0498366,0.041528 0.0692035,0.060868 0.0249243,0.02769 0.0304547,0.058144 0.0249243,0.09135 -0.002775,0.038777 -0.0387628,0.055366 -0.0636731,0.083056 -0.008307,0.019368 -0.0166031,0.041499 0,0.060867 0.00555,0.022161 0.0442781,0.019396 0.0498225,0.035984 0.0110738,0.044278 0.0830409,0.069189 0.0996436,0.069189 0.0138525,0.00277 0.0276759,0.016616 0.0276759,0.016616 0.0304547,0.022161 0.0664388,0.016616 0.0885853,0.013838 0.0193669,-0.00276 0.0553659,0.013866 0.0774975,0.011074 0.035984,-0.013838 0.063659,-0.00829 0.099644,-0.011074 0.1107167,0 0.235271,0 0.3487524,0.013866 0.02216,-0.00277 0.047072,0.011044 0.066439,0.00276 0.00277,-0.00829 0,-0.016617 0,-0.022161 -0.055366,-0.085798 -0.06366,-0.1798979 -0.033207,-0.274041 h 0.022131 c 0.071982,0.00832 0.1384208,0 0.2131535,-0.044278 0.038748,-0.019368 0.058116,-0.069189 0.055365,-0.102409 0,-0.022161 -0.00832,-0.049823 -0.00554,-0.071984 0.00275,-0.011073 0.00829,-0.027661 0.019367,-0.033204 0.00275,-0.00277 0.016617,-0.011074 0.02216,-0.022161 0.00829,-0.02216 -0.00832,-0.030454 -0.013867,-0.033206 0.013867,-0.00277 0.024911,-0.030454 0.013867,-0.047071 -0.00832,-0.00829 -0.016617,-0.038749 -0.016617,-0.047043 -0.00277,-0.013867 -0.00277,-0.02769 0.00829,-0.038777 0.030455,-0.013838 0.058145,-0.016588 0.088571,-0.030454 0.02216,-0.00829 0.033233,-0.030454 0.033233,-0.049823 z M 0.7230819,1.9539777 c -0.002765,0.00554 -0.002765,0.011073 -0.002765,0.019368 -0.002775,0.00554 -0.0138525,0 -0.0166162,-0.00277 -0.0138384,-0.00829 -0.0138384,-0.00276 -0.0166172,-0.016588 0,-0.00829 0,-0.016617 0.0110728,-0.022161 0.0110738,-0.00554 0.0249103,-0.011044 0.0332193,0 1.463e-5,0.00554 -0.008297,0.013867 -0.008297,0.022161 z m 0.0747328,0.09135 c -0.0193669,0 -0.0304397,-0.00832 -0.0387488,-0.030454 -0.008307,-0.024911 -0.0110738,-0.047072 -0.005531,-0.074733 0.002765,-0.00277 0.005531,-0.00554 0.008307,-0.00277 l 0.0249103,-0.011073 c 0.00555,-0.00276 0.0138385,-0.00276 0.0221457,0 l 0.002765,0.00554 c 0,0.013867 -0.002765,0.022161 -0.002765,0.035984 0,0.033206 -0.00555,0.041527 0.005531,0.071984 -0.002765,0.00827 -0.0110728,0.00553 -0.0166171,0.00553 z M 1.7832313,0.83845303 c -0.00277,0.002764 -0.00554,0.005529 -0.011073,0.005529 -0.00829,-0.008308 -0.00554,-0.013838 -0.00275,-0.0221462 0,-0.002764 0,-0.002764 0.00275,-0.002764 0.00554,0 0.00829,0.002764 0.00829,0.002764 0.00277,0.005543 0.00277,0.0110872 0.00277,0.0166167 z M 1.1023004,1.2315003 C 1.1604305,1.1263267 1.2323986,1.0349767 1.3071312,0.93809717 L 1.415069,0.81907154 C 1.48983,0.73603014 1.5756215,0.65298832 1.6697498,0.58932838 c 0.011045,-0.005543 0.016588,-0.0221463 0.027662,-0.0110733 l 0.011073,0.0110733 c 0.00829,0.008308 0.00276,0.0304404 -0.00554,0.038749 -0.00554,0.002764 -0.011073,0.008308 -0.016617,0.0138521 0.016617,0.0193675 0.044278,0.052587 0.066439,0.0747333 0.00829,0.008309 0.00554,0.0193675 0.02216,0.0276757 0.00829,0.002764 0.011045,0.0138379 0.00551,0.0221462 -0.013839,0.0193819 -0.038748,0.013838 -0.060867,0.0193819 -0.071983,0.0166024 -0.1328772,0.0387485 -0.2131535,0.0774976 -0.063659,0.0359842 -0.1162604,0.0719685 -0.1633032,0.13286365 -0.019367,0.0221469 -0.038748,0.0387488 -0.055365,0.0636742 -0.041528,0.055351 -0.074733,0.1079524 -0.1079663,0.1660689 -0.013824,0.016617 -0.016602,0.024911 -0.033205,0.041527 -0.0083,0.00829 -0.016616,-0.00829 -0.022145,-0.013837 v -0.00277 h -0.0083 c -0.00275,-0.00829 -0.016602,-0.011059 -0.013824,-0.019381 z M 1.7472472,0.824615 c 0,0.0193819 -0.027662,0.0359842 -0.049822,0.0415281 -0.00829,0.002764 -0.019367,0.002764 -0.027662,0.002764 -0.00277,-0.002764 -0.00277,-0.002764 -0.00277,-0.005544 0,-0.0110729 0.00277,-0.0166024 0.00277,-0.024911 l 0.00554,-0.002779 c 0.022131,-0.005529 0.044278,-0.0110729 0.06641,-0.0138375 0.00276,1.479e-5 0.00553,1.479e-5 0.00553,0.002779 z m -0.2075956,0.0526014 0.00275,-0.005543 c 0.013838,-0.005543 0.030455,-0.0138381 0.049822,-0.0193815 l 0.019367,-0.005529 c 0.00829,-0.005543 0.019367,-0.008308 0.02216,0 0.00275,0.024911 -0.019367,0.0608952 -0.049822,0.0747328 -0.011073,0.002764 -0.02216,0.005543 -0.035984,0.008309 -0.00278,-0.002764 -0.013838,0.002764 -0.013838,-0.005543 1.23e-5,-0.0138375 0.00554,-0.0332191 0.00554,-0.047043 z M 1.3154251,1.3809808 c -0.00829,0.00277 -0.058116,-0.016588 -0.052572,-0.011044 -0.011073,-0.013867 0.00829,-0.019396 -0.035984,-0.035984 l -0.011073,0.00276 c -0.00275,0 -0.00554,0.00277 -0.011073,-0.00276 0,-0.00832 0.011073,-0.00554 0.011073,-0.013837 0.016617,-0.035984 0.00832,-0.066439 0.00832,-0.1024373 l 0.00827,-0.030454 c 0.024911,-0.027661 0.024911,-0.030454 0.038748,-0.047057 0.016617,-0.022147 0.019367,-0.022147 0.038776,-0.038749 0.00551,-0.00554 0.011045,-0.00554 0.013838,-0.00276 0.011073,0.0083 0.011073,0.013852 0.013838,0.022147 0.00554,0.035984 -0.016616,0.060896 -0.041528,0.080263 -0.019367,0.016617 -0.035984,0.038777 -0.033205,0.063688 v 0.00276 c 0.011073,-0.00829 0.019367,-0.011073 0.024911,-0.019366 0.011073,-0.033206 0.049821,-0.047072 0.071983,-0.074734 0.011045,-0.016617 0.00275,-0.044292 0,-0.063674 0,0.00277 0.027661,-0.013837 0.022131,-0.0083 0.011073,0.00554 0.011073,0.016617 0.016616,0.027676 0.011073,0.030454 0.011073,0.06091 -0.00832,0.088572 l -0.052572,0.06366 c -2.46e-5,0.035999 0.00827,0.077527 -0.022188,0.099659 z m 0.069189,-0.3210787 c -0.013838,0.00553 -0.024882,0.00829 -0.0415,0 -0.00277,-0.00278 -0.013838,-0.0083 -0.011073,-0.013852 0.011073,-0.019367 0.02769,-0.03044 0.038748,-0.0470573 l 0.00554,-0.002765 C 1.3984891,0.968552 1.4316951,0.946406 1.4649001,0.9270385 l 0.019396,-0.005543 c 0.00275,-0.005543 0.013838,-0.0166169 0.016588,-0.005543 0,0.0332194 -0.013838,0.0692038 -0.047043,0.0941146 -0.019367,0.013837 -0.024912,0.011073 -0.044278,0.013837 l -0.00832,0.013852 a 0.04303826,0.04303852 0 0 1 -0.016631,0.022147 z M 1.2046943,1.253661 v 0.022132 c -0.00275,0.022161 -0.011045,0.049823 -0.033205,0.060896 -0.011073,-0.00276 -0.0083,-0.019367 -0.011073,-0.027662 0.0083,-0.022161 0.024912,-0.038777 0.035984,-0.060896 h 0.00554 z M 0.91407202,2.0840763 c -0.008307,0.011073 -0.0138384,0.00554 -0.0221457,0.00554 -0.0249243,-0.00554 -0.0387628,-0.016616 -0.0470569,-0.044278 -0.008307,-0.038778 -0.008307,-0.083056 0,-0.1218047 l 0.002765,-0.00276 c 0.0193819,-0.00277 0.0442921,-0.00554 0.0526013,0 0.005531,0.00276 -0.008307,0.071954 -0.008307,0.071954 0,0.013838 0.008307,0.049822 0.0138384,0.069189 0,-1.23e-5 0.0138385,0.016603 0.008307,0.022146 z M 1.0912272,2.0397836 c 0,0.027661 -0.033219,0.049822 -0.047057,0.052572 -0.016616,0.00554 -0.0636592,0.00277 -0.0747328,0 -0.0138385,-0.00554 -0.0470578,-0.069189 -0.0442781,-0.102409 0,-0.02769 0.008307,-0.069189 0.0193819,-0.074733 0.0110597,-0.00277 0.0387488,0 0.0387488,0 0.0138384,0 0.0221457,0.00276 0.0332194,0.00554 0.0083,0 0,0.011045 0.00553,0.016589 0.00276,0.013837 0.00276,0.02769 0.011073,0.041527 0.013853,0.02491 0.035984,0.038749 0.05813,0.047072 0.00275,0.00276 -1.48e-5,0.011059 -1.48e-5,0.013838 z M 1.0580078,1.9345958 c 0,-0.00277 0,-0.00554 0.00276,-0.00832 h 0.022145 c 0.019382,0 0.041528,0.00832 0.05813,-0.011045 0.011073,0 0.011073,0.011045 0.013838,0.022133 0.00276,0.011087 0.00276,0.019368 0.00276,0.033205 -0.00554,0.00832 -0.0083,0.022161 -0.019382,0.02769 a 0.06102312,0.0610235 0 0 1 -0.044278,0 c -0.022136,-0.013837 -0.035975,-0.033206 -0.035975,-0.063661 z m 0.4234994,-0.096879 c -0.027661,0.096893 -0.0415,0.1439366 0.00277,0.2435808 0,0.00277 0.00554,0.016616 0,0.019367 -0.047071,-0.011044 -0.060896,-0.016589 -0.1051873,-0.019367 -0.041528,-0.00554 -0.110731,0.00554 -0.155009,0.00554 -0.038776,0 -0.074747,0.00277 -0.1107309,0.00554 -0.011073,-0.00554 -0.00554,-0.019368 -0.00276,-0.024911 0.00276,-0.013838 0.00554,-0.019368 0.00554,-0.035984 0.00554,-0.00551 0.013838,-0.00276 0.019367,-0.00551 0.024911,-0.00277 0.047057,-0.024939 0.049821,-0.047072 0.00832,-0.024911 0,-0.052601 -0.011045,-0.074733 0,-0.00554 -0.011088,-0.011074 -0.00554,-0.016617 0.027676,-0.055365 0.0083,-0.1134811 -0.00276,-0.1688474 -0.0083,-0.038749 -0.024911,-0.080276 -0.030455,-0.1218043 0,-0.00554 -0.00553,-0.013838 0.00276,-0.016588 l 0.00276,0.00276 c 0.033233,0.038749 0.1245545,0.1190256 0.1577881,0.1467161 0.033205,0.027661 0.1217754,0.080277 0.1799198,0.091321 0.00553,0.00553 0.00553,0.011074 0.00275,0.016617 z"
         fill="#4c8175"
         stroke="#4c8175"
         stroke-width="1.25113"
         stroke-linecap="round"
         stroke-linejoin="round"
         stroke-miterlimit="2.613"
         id="path6"
         style="fill:#ffffff;fill-opacity:0.70380759;stroke:#ffffff;stroke-width:0.0294648;stroke-miterlimit:2.613;stroke-dasharray:none;stroke-opacity:0.70323652" />
      <path
         d="m 1.7250867,1.0017716 c 0.00554,0.0083 0.00832,0.013837 0.00554,0.022147 -0.011045,0 -0.013839,-0.013837 -0.022131,-0.019382 -0.016617,-0.005529 -0.030455,0 -0.044278,0.00554 -0.038776,0.016617 -0.071983,0.047058 -0.1079661,0.06366 -0.00275,0 -0.00829,0 -0.011073,-0.00276 0.00554,-0.00554 0.016617,-0.0083 0.02494,-0.011074 0.038748,-0.024925 0.074733,-0.0664387 0.1217754,-0.0719818 0.013824,0 0.024898,0.002783 0.03319,0.0138525 z m -0.00276,0.06366 c -0.00275,-0.0083 -0.00275,-0.024925 -0.013838,-0.027676 -0.00277,0.00829 0,0.013837 -0.00277,0.019367 -0.00275,0.00277 -0.00829,0.0083 -0.016588,0.00554 -0.047071,0.00553 -0.080276,0.044292 -0.119025,0.066439 -0.013867,0.0083 -0.02769,0.011073 -0.041528,0.016602 -0.00277,0 -0.00277,0.00277 0,0.00554 0.044278,0.00554 0.085805,0.00832 0.1300981,0.013837 l 0.047043,-0.00551 c 0.00277,-0.00832 -0.00554,-0.011073 -0.00554,-0.019382 0.00832,-0.019381 0.00832,-0.041528 0.00277,-0.060896 0.00554,-0.00832 0.019381,-2.98e-5 0.019381,-0.013867 z m -0.033204,0.074734 c -0.00832,0.0083 -0.016617,0 -0.02491,0.00276 -0.019367,-0.00276 -0.049822,0.00276 -0.071983,0 -0.00275,-0.00276 -0.00554,-0.00554 -0.00275,-0.0083 0.00275,-0.00554 0.011045,-0.00554 0.016588,-0.011073 0.024911,-0.013837 0.047072,-0.027676 0.071982,-0.033219 0.00554,0 0.011073,0.00276 0.011073,0.00553 0.00275,0.013867 0,0.033233 0,0.044307 z m 0.058116,0.1411718 c 0,0 0.00276,-0.00554 0.00554,-0.00554 0.00276,0.00277 0.00276,0.00554 0.00276,0.00832 0,0.00829 -0.00276,0.016588 -0.00276,0.024911 -0.00554,0.011074 -0.00554,0.022132 -0.00554,0.033206 v 0.011074 c 0.00829,0.00829 0.016617,0.011073 0.02769,0.00829 l 0.019368,-0.011074 c 0.016588,-0.011044 0.030455,-0.019367 0.060895,-0.027661 v 0.011073 c 0,0.00276 -0.02769,0.013837 -0.02769,0.013837 -0.02216,0.00829 -0.044278,0.016617 -0.06366,0.027661 -0.00554,0.00277 -0.011073,0 -0.016617,-0.00276 h -0.00276 c -0.00832,-0.011074 -0.00832,-0.022161 -0.00832,-0.033206 0,-0.00832 0,-0.019367 0.00277,-0.02769 0.00276,-0.00829 0.00554,-0.016588 0.00554,-0.027662 z m -0.6560195,-0.0083 c 0.016602,0.030454 0,0.060896 0,0.094114 0.00276,0.00829 0.022146,0.00829 0.016602,0.019367 -0.00553,0.00554 -0.011059,0.00554 -0.013838,0 -0.011074,-0.00276 -0.013853,-0.00829 -0.013853,-0.016588 -0.00276,-0.030454 0.019382,-0.063688 0,-0.0886 -0.00553,-0.00829 -0.016603,-0.011073 -0.022131,-0.013837 -0.019382,0.00276 -0.027675,0.024911 -0.033219,0.038749 -0.011074,0.035984 -0.013839,0.077512 0.019367,0.1051875 0.019382,0.011074 0.041527,0.02491 0.044292,0.049823 0.00276,0.00277 0.0083,0.00832 0.013839,0.00554 0.00553,0 0.00553,-0.016616 0.013838,-0.011073 l 0.00276,0.00832 c -0.00276,0.00554 -0.00276,0.019366 -0.013838,0.019366 -0.00555,0 -0.011074,-0.00277 -0.016617,-0.00554 -0.013839,-0.013838 -0.00276,-0.033204 -0.022145,-0.038749 -0.033219,-0.011074 -0.055365,-0.044278 -0.05813,-0.077512 -0.00276,-0.030454 0,-0.066411 0.027675,-0.09135 0.011074,-0.00829 0.022145,-0.013837 0.035984,-0.00829 0.00833,0 0.016645,0.00554 0.019411,0.011074 z M 0.68156537,1.500021 c -0.0608944,0.027661 -0.0774975,0.099644 -0.0802762,0.1024087 v 0.00554 l 0.005531,0.00276 c 0.002765,0 0.0581297,0.019395 0.12733349,-0.013838 0.0664388,-0.033205 0.0802763,-0.1024089 0.0802763,-0.1024089 l 0.002765,-0.00832 -0.005531,-0.00276 c -0.002775,0 -0.0719821,-0.011074 -0.13009763,0.016616 z m 0.005531,0.013838 c 0.0442922,-0.019367 0.0941142,-0.019367 0.11348147,-0.016616 -0.00555,0.019367 -0.0249103,0.06366 -0.0747328,0.085806 -0.0498225,0.024911 -0.0913491,0.019367 -0.107952,0.016617 0.00555,-0.019367 0.0249103,-0.066439 0.0692033,-0.085807 z m 0.0553649,-0.146716 c -0.0608944,0.02769 -0.0830409,0.096894 -0.0830409,0.099644 l -0.002765,0.00832 h 0.008307 c 0,0 0.055365,0.019367 0.12455447,-0.013867 0.0692035,-0.033205 0.0830409,-0.099644 0.0830409,-0.1024089 v -0.00554 l -0.00555,-0.00277 c -0.002765,1.23e-5 -0.0664378,-0.01103 -0.12455446,0.016631 z m 0.005531,0.013838 c 0.0415275,-0.022132 0.0885853,-0.019367 0.10795191,-0.016588 -0.00555,0.016588 -0.0221457,0.058116 -0.0747328,0.083028 -0.0470578,0.024911 -0.09135,0.019367 -0.10518731,0.016617 0.00555,-0.019381 0.02769,-0.066439 0.0719682,-0.083057 z"
         fill="#4c8175"
         stroke="#4c8175"
         stroke-width="1.25113"
         stroke-linecap="round"
         stroke-linejoin="round"
         stroke-miterlimit="2.613"
         id="path8"
         style="fill:#ffffff;fill-opacity:0.70380759;stroke:#ffffff;stroke-width:0.0294648;stroke-miterlimit:2.613;stroke-dasharray:none;stroke-opacity:0.70323652" />
      <path
         d="m 0.81995791,1.2370441 c -0.0608944,0.024911 -0.0858056,0.096894 -0.0885704,0.099644 v 0.00554 l 0.00555,0.00277 c 0.002765,0.00276 0.0581156,0.016588 0.12733331,-0.016617 0.0664247,-0.030454 0.0830409,-0.094114 0.0830409,-0.096893 v -0.00554 l -0.005531,-0.00276 C 0.9389866,1.220451 0.87809264,1.2121238 0.8199625,1.2370351 Z m 0.005531,0.013837 c 0.0415275,-0.019367 0.0885853,-0.016588 0.10518721,-0.013837 a 0.15547929,0.15548025 0 0 1 -0.0747328,0.080277 c -0.0470578,0.022161 -0.0913491,0.019368 -0.10795191,0.016617 0.008307,-0.019367 0.0332193,-0.063688 0.0774975,-0.083057 z m 0.0692035,-0.1411579 c -0.0581297,0.024925 -0.0885703,0.094115 -0.0885703,0.096879 l -0.002765,0.00832 0.008307,0.00275 c 0,0 0.0553509,0.013838 0.12455437,-0.016617 0.0692025,-0.033201 0.0858047,-0.094096 0.0858047,-0.096861 v -0.00554 l -0.00553,-0.00276 c -0.00277,-1.48e-5 -0.0609085,-0.011088 -0.12180415,0.013837 z m 0.008307,0.013837 c 0.0415275,-0.019368 0.0858056,-0.016603 0.10242259,-0.013837 -0.00555,0.016617 -0.0249254,0.055352 -0.0775116,0.077498 -0.0470569,0.022161 -0.0885703,0.019368 -0.10518722,0.016617 0.008307,-0.016617 0.0359981,-0.063674 0.0802763,-0.080277 z"
         fill="#4c8175"
         stroke="#4c8175"
         stroke-width="1.25113"
         stroke-linecap="round"
         stroke-linejoin="round"
         stroke-miterlimit="2.613"
         id="path10"
         style="fill:#ffffff;fill-opacity:0.70380759;stroke:#ffffff;stroke-width:0.0294648;stroke-miterlimit:2.613;stroke-dasharray:none;stroke-opacity:0.70323652" />
      <path
         d="M 1.0026425,0.98239005 C 0.9445269,1.0073155 0.9112925,1.07374 0.9085283,1.079269 l -0.00555,0.00553 0.0110738,0.00276 c 0,0.00276 0.0553509,0.013837 0.1245545,-0.016603 0.069189,-0.033219 0.085805,-0.0913502 0.085805,-0.0913502 l 0.00276,-0.008303 -0.0083,-0.002764 c -0.00274,1.49e-5 -0.055322,-0.0110589 -0.116232,0.0138525 z m 0.00555,0.011073 c 0.044292,-0.0166019 0.083041,-0.0138375 0.099643,-0.011073 -0.00553,0.0166169 -0.024912,0.0525863 -0.074733,0.0747331 -0.0498225,0.022147 -0.0885712,0.022147 -0.107952,0.016617 0.0110738,-0.016617 0.0415275,-0.060896 0.083042,-0.0802772 z"
         fill="#4c8175"
         stroke="#4c8175"
         stroke-width="1.25113"
         stroke-linecap="round"
         stroke-linejoin="round"
         stroke-miterlimit="2.613"
         id="path12"
         style="fill:#ffffff;fill-opacity:0.70380759;stroke:#ffffff;stroke-width:0.0294648;stroke-miterlimit:2.613;stroke-dasharray:none;stroke-opacity:0.70323652" />
      <path
         d="m 1.1216818,0.85783451 c -0.060896,0.0249114 -0.096879,0.09135 -0.099658,0.0968794 l -0.00553,0.008303 0.011059,0.002765 c 0,0 0.055367,0.008303 0.1245687,-0.0193674 0.071982,-0.030455 0.085805,-0.0885709 0.08857,-0.0885709 v -0.008308 l -0.00829,-0.002764 c 0,-1.48e-5 -0.049822,-0.0110873 -0.1107166,0.0110589 z m 0.00553,0.013838 c 0.041528,-0.0166028 0.080276,-0.013838 0.096893,-0.0110731 -0.00832,0.013838 -0.02769,0.0498223 -0.077512,0.0719685 -0.047057,0.0193815 -0.08857,0.0193815 -0.107952,0.0193815 0.013839,-0.0193815 0.044278,-0.063674 0.088571,-0.0802769 z"
         fill="#4c8175"
         stroke="#4c8175"
         stroke-width="1.25113"
         stroke-linecap="round"
         stroke-linejoin="round"
         stroke-miterlimit="2.613"
         id="path14"
         style="fill:#ffffff;fill-opacity:0.70380759;stroke:#ffffff;stroke-width:0.0294648;stroke-miterlimit:2.613;stroke-dasharray:none;stroke-opacity:0.70323652" />
      <path
         d="m 1.246222,0.74157356 c -0.060896,0.024911 -0.099644,0.09135 -0.1024083,0.0941147 l -0.00554,0.008308 0.011073,0.002764 c 0.00276,0 0.055336,0.008308 0.1245688,-0.0193819 0.069188,-0.0304404 0.08857,-0.0830414 0.08857,-0.0858062 l 0.00275,-0.008308 h -0.00829 c -0.00274,0 -0.049807,-0.0138379 -0.1107167,0.008308 z m 0.00554,0.0138379 c 0.041528,-0.0166168 0.077512,-0.0138379 0.094114,-0.0110733 -0.00829,0.013838 -0.027661,0.0470576 -0.077498,0.0691893 -0.047071,0.0193815 -0.085805,0.0221462 -0.1051872,0.0193815 0.011088,-0.0193671 0.047043,-0.0608952 0.088571,-0.0774975 z"
         fill="#4c8175"
         stroke="#4c8175"
         stroke-width="1.25113"
         stroke-linecap="round"
         stroke-linejoin="round"
         stroke-miterlimit="2.613"
         id="path16"
         style="fill:#ffffff;fill-opacity:0.70380759;stroke:#ffffff;stroke-width:0.0294648;stroke-miterlimit:2.613;stroke-dasharray:none;stroke-opacity:0.70323652" />
      <path
         d="m 1.37632,0.63362119 c -0.058116,0.024911 -0.102408,0.09135 -0.1051871,0.0941147 l -0.00829,0.008308 0.011073,0.002764 c 0.00275,0 0.058115,0.005543 0.127319,-0.0221462 0.071983,-0.0276757 0.088599,-0.077498 0.088599,-0.0830414 l 0.00275,-0.005543 h -0.00829 c 0,-0.002764 -0.044278,-0.0166028 -0.1079663,0.005543 z m 0.00829,0.0138377 c 0.038776,-0.0166169 0.071982,-0.0138377 0.0886,-0.008308 -0.00832,0.0138375 -0.02769,0.0442781 -0.077512,0.0636599 -0.047043,0.0193814 -0.085791,0.0221462 -0.1051874,0.0221462 0.013867,-0.0193675 0.049821,-0.0608811 0.094099,-0.0774981 z"
         fill="#4c8175"
         stroke="#4c8175"
         stroke-width="1.25113"
         stroke-linecap="round"
         stroke-linejoin="round"
         stroke-miterlimit="2.613"
         id="path18"
         style="fill:#ffffff;fill-opacity:0.70380759;stroke:#ffffff;stroke-width:0.0294648;stroke-miterlimit:2.613;stroke-dasharray:none;stroke-opacity:0.70323652" />
      <path
         d="M 1.5119618,0.53950647 C 1.451067,0.56165277 1.4012309,0.62807733 1.3984805,0.6308421 l -0.00554,0.008309 0.011073,0.002764 c 0.00275,0 0.058116,0.002764 0.1273192,-0.0221467 0.069189,-0.0304404 0.08857,-0.0774976 0.08857,-0.0802623 l 0.00278,-0.005543 -0.00829,-0.002764 c 0,0 -0.041528,-0.0138234 -0.1024226,0.008308 z m 0.00554,0.0110729 c 0.038748,-0.0138375 0.071983,-0.0110729 0.085805,-0.008308 -0.00829,0.0138375 -0.030455,0.0442925 -0.080276,0.0636599 -0.044278,0.0166168 -0.083027,0.0221463 -0.1024369,0.0221463 0.013867,-0.0193675 0.052615,-0.0608952 0.096907,-0.0774977 z M 0.58745143,1.3643924 c -0.002765,0.00276 -0.0442922,0.058116 -0.0470569,0.1217764 -0.005531,0.066439 0.0470569,0.1162609 0.0498216,0.1190541 l 0.00555,0.00551 0.00555,-0.00551 c 0,-0.00277 0.0442781,-0.041528 0.0470578,-0.1190541 0.002765,-0.074733 -0.0498225,-0.1217764 -0.0525862,-0.1217764 l -0.00555,-0.00554 z m -0.035984,0.130099 c 0,-0.00277 0.002765,-0.00554 0.002765,-0.00832 0.002765,-0.047043 0.0276759,-0.091322 0.0387488,-0.1051881 0.0138385,0.013867 0.0415275,0.047072 0.0415275,0.099644 v 0.00554 c -0.002765,0.055366 -0.027675,0.09135 -0.0387488,0.1024374 -0.0110728,-0.011087 -0.0442922,-0.049837 -0.0442922,-0.094115 z"
         fill="#4c8175"
         stroke="#4c8175"
         stroke-width="1.25113"
         stroke-linecap="round"
         stroke-linejoin="round"
         stroke-miterlimit="2.613"
         id="path20"
         style="fill:#ffffff;fill-opacity:0.70380759;stroke:#ffffff;stroke-width:0.0294648;stroke-miterlimit:2.613;stroke-dasharray:none;stroke-opacity:0.70323652" />
      <path
         d="m 0.67049256,1.2204558 c -0.002765,0 -0.035984,0.038749 -0.0498225,0.091321 0,0.00832 -0.002765,0.016617 -0.002765,0.024911 -0.008307,0.063688 0.035984,0.116261 0.0387628,0.116261 l 0.005531,0.00829 0.00555,-0.00554 c 0,-0.00276 0.0442781,-0.038749 0.0525871,-0.1134819 0.0110728,-0.074733 -0.035984,-0.1217763 -0.0387488,-0.1217763 l -0.00555,-0.00554 z m -0.0415275,0.1300701 c 0,-0.00276 0,-0.00829 0.002765,-0.013837 0,-0.00829 0,-0.013838 0.002765,-0.019368 0.0110728,-0.041528 0.0304547,-0.069189 0.0415275,-0.080277 0.0110728,0.011073 0.0332194,0.041527 0.0332194,0.088572 0,0.00278 0,0.00832 -0.002775,0.013867 -0.005531,0.055366 -0.0332193,0.088572 -0.0442781,0.099644 -0.008307,-0.013838 -0.0332193,-0.047072 -0.0332185,-0.0886 z"
         fill="#4c8175"
         stroke="#4c8175"
         stroke-width="1.25113"
         stroke-linecap="round"
         stroke-linejoin="round"
         stroke-miterlimit="2.613"
         id="path22"
         style="fill:#ffffff;fill-opacity:0.70380759;stroke:#ffffff;stroke-width:0.0294648;stroke-miterlimit:2.613;stroke-dasharray:none;stroke-opacity:0.70323652" />
      <path
         d="m 0.76460668,1.0847986 c 0,0 -0.035984,0.033219 -0.0553509,0.085807 0,0.00832 -0.002775,0.013867 -0.00555,0.022161 -0.0110738,0.060896 0.027675,0.1162609 0.0304397,0.1190257 l 0.002775,0.00554 0.005531,-0.00275 c 0.002765,-0.00278 0.0470578,-0.038778 0.0608944,-0.1079668 0.0166172,-0.071954 -0.0249103,-0.1217904 -0.027675,-0.1217904 l -0.00555,-0.00556 z m -0.0498366,0.132878 c 0,-0.00829 0.002765,-0.013837 0.002765,-0.022133 0.002775,-0.00554 0.002775,-0.013867 0.00555,-0.019396 a 0.20303513,0.20303638 0 0 1 0.0470569,-0.074733 c 0.008307,0.011073 0.0221457,0.035984 0.0221457,0.074733 0,0.00832 0,0.016617 -0.002765,0.02769 -0.008307,0.049823 -0.035984,0.080277 -0.0470578,0.094115 -0.008307,-0.013837 -0.02769,-0.044293 -0.02769,-0.080277 z"
         fill="#4c8175"
         stroke="#4c8175"
         stroke-width="1.25113"
         stroke-linecap="round"
         stroke-linejoin="round"
         stroke-miterlimit="2.613"
         id="path24"
         style="fill:#ffffff;fill-opacity:0.70380759;stroke:#ffffff;stroke-width:0.0294648;stroke-miterlimit:2.613;stroke-dasharray:none;stroke-opacity:0.70323652" />
      <path
         d="m 0.86977965,0.9574787 c -0.002765,0 -0.0387488,0.0304403 -0.0608944,0.0802771 -0.002765,0.00829 -0.00555,0.013837 -0.008307,0.022147 -0.0138385,0.060882 0.0166172,0.1190256 0.0193819,0.1190256 l 0.002765,0.00829 0.008307,-0.00554 c 0,0 0.0470569,-0.033205 0.063659,-0.102409 0.0221456,-0.071968 -0.0138384,-0.11902559 -0.0166162,-0.12179026 l -0.005531,-0.005538 z m -0.0581156,0.1356284 c 0,-0.0083 0,-0.019367 0.002765,-0.03044 0.002765,-0.00554 0.00555,-0.013837 0.008307,-0.016617 0.0138525,-0.038749 0.0387628,-0.0636601 0.0498366,-0.0747331 0.005531,0.0110739 0.0166162,0.0332189 0.0166162,0.0636602 0,0.013837 -0.002765,0.024925 -0.00555,0.038749 -0.0138385,0.049822 -0.0415275,0.077498 -0.0553659,0.091336 -0.005559,-0.013823 -0.0166162,-0.038735 -0.0166162,-0.071954 z"
         fill="#4c8175"
         stroke="#4c8175"
         stroke-width="1.25113"
         stroke-linecap="round"
         stroke-linejoin="round"
         stroke-miterlimit="2.613"
         id="path26"
         style="fill:#ffffff;fill-opacity:0.70380759;stroke:#ffffff;stroke-width:0.0294648;stroke-miterlimit:2.613;stroke-dasharray:none;stroke-opacity:0.70323652" />
      <path
         d="m 0.98049634,0.83845302 c 0,0 -0.0387488,0.024911 -0.0664237,0.077498 0,0.005543 -0.002775,0.0110729 -0.008307,0.0193815 -0.0166031,0.0581304 0.005531,0.11626088 0.008307,0.11902578 l 0.002765,0.0083 0.008307,-0.00554 c 0,0 0.0470569,-0.03044 0.0719681,-0.0996444 0.027676,-0.0664385 -0.00555,-0.11626084 -0.00555,-0.11626084 l -0.002765,-0.008308 z M 0.9140726,0.98239005 c 0,-0.0138375 0.002765,-0.0276758 0.008297,-0.0415283 0,-0.008308 0.002775,-0.0138379 0.00555,-0.0193674 0.0193819,-0.0359838 0.0442922,-0.0581305 0.0553659,-0.0664246 0.00555,0.008294 0.0110738,0.0249114 0.0110738,0.0498223 0,0.0138376 -0.002775,0.0304549 -0.0110738,0.0498363 A 0.19287412,0.19287532 0 0 1 0.9223911,1.0405353 C 0.9196161,1.0294483 0.9140841,1.0100663 0.9140841,0.9823911 Z"
         fill="#4c8175"
         stroke="#4c8175"
         stroke-width="1.25113"
         stroke-linecap="round"
         stroke-linejoin="round"
         stroke-miterlimit="2.613"
         id="path28"
         style="fill:#ffffff;fill-opacity:0.70380759;stroke:#ffffff;stroke-width:0.0294648;stroke-miterlimit:2.613;stroke-dasharray:none;stroke-opacity:0.70323652" />
      <path
         d="m 1.1023003,0.72773593 c -0.00276,0.002764 -0.041528,0.0193815 -0.071969,0.0719682 -0.00277,0.008308 -0.00555,0.0138379 -0.0083,0.0221467 -0.0221456,0.0553658 -0.0083,0.11348181 -0.00553,0.11626093 v 0.011073 l 0.011059,-0.005538 c 0,0 0.047058,-0.0304409 0.077512,-0.0941148 0.033219,-0.066439 0.0083,-0.11626095 0.00553,-0.11904008 l -0.00276,-0.005529 z m -0.077512,0.16053939 c 0,-0.0193676 0.00276,-0.0415138 0.011074,-0.0636604 0.00276,-0.005529 0.00276,-0.0110729 0.0083,-0.0166024 0.019382,-0.0359842 0.047057,-0.0553658 0.05813,-0.0636599 0.00276,0.008308 0.00553,0.0193671 0.00553,0.0359842 0,0.0193671 -0.00276,0.0387485 -0.013838,0.0636599 -0.022145,0.0442784 -0.052587,0.0692033 -0.066439,0.0802767 -0.00276,-0.008323 -0.00276,-0.0221462 -0.00276,-0.0359982 z"
         fill="#4c8175"
         stroke="#4c8175"
         stroke-width="1.25113"
         stroke-linecap="round"
         stroke-linejoin="round"
         stroke-miterlimit="2.613"
         id="path30"
         style="fill:#ffffff;fill-opacity:0.70380759;stroke:#ffffff;stroke-width:0.0294648;stroke-miterlimit:2.613;stroke-dasharray:none;stroke-opacity:0.70323652" />
      <path
         d="m 1.2296336,0.62807735 c -0.00277,0 -0.044307,0.0138521 -0.077512,0.066439 -0.00276,0.005529 -0.00553,0.011073 -0.011073,0.0193671 -0.022146,0.052587 -0.016617,0.11626094 -0.016617,0.11902567 l 0.00276,0.008308 0.0083,-0.005543 c 0.00276,0 0.049821,-0.0276757 0.088584,-0.0885709 0.035956,-0.0636743 0.016588,-0.11349623 0.013838,-0.11626095 l -0.00275,-0.008308 z M 1.138285,0.80801263 c 0,-0.0221462 0.00276,-0.0581305 0.016616,-0.0885853 0.00276,-0.008309 0.00553,-0.0110733 0.0083,-0.0166028 0.024926,-0.0359842 0.052586,-0.0525866 0.06366,-0.0608952 0.00277,0.008309 0.00277,0.0138379 0.00277,0.0249109 0,0.0193675 -0.00277,0.0442784 -0.019396,0.0719685 -0.024911,0.0442784 -0.05535,0.0692039 -0.071954,0.0802767 z"
         fill="#4c8175"
         stroke="#4c8175"
         stroke-width="1.25113"
         stroke-linecap="round"
         stroke-linejoin="round"
         stroke-miterlimit="2.613"
         id="path32"
         style="fill:#ffffff;fill-opacity:0.70380759;stroke:#ffffff;stroke-width:0.0294648;stroke-miterlimit:2.613;stroke-dasharray:none;stroke-opacity:0.70323652" />
      <path
         d="m 1.365247,0.53397701 c -0.00275,0 -0.044278,0.0110729 -0.083027,0.0636599 -0.00554,0.002764 -0.00829,0.0110729 -0.011073,0.0166168 -0.027662,0.0525866 -0.030455,0.11624695 -0.030455,0.1190257 v 0.0110731 l 0.011073,-0.005543 c 0.00278,-0.002764 0.0526,-0.024911 0.094114,-0.0858061 0.041528,-0.0608952 0.02769,-0.11348223 0.02769,-0.11348223 l -0.00278,-0.008308 z M 1.28222,0.62254791 c 0.00275,-0.005529 0.00829,-0.013838 0.011073,-0.0166168 0.024911,-0.0359703 0.055366,-0.0498223 0.066439,-0.0553518 0.00275,0.002764 0.00275,0.005529 0.00275,0.0110731 0,0.0193815 -0.00554,0.0498219 -0.030455,0.0830414 -0.027661,0.0415138 -0.058115,0.0636599 -0.074733,0.0747333 0.00276,-0.0193815 0.00554,-0.0636599 0.024926,-0.0968792 z"
         fill="#4c8175"
         stroke="#4c8175"
         stroke-width="1.25113"
         stroke-linecap="round"
         stroke-linejoin="round"
         stroke-miterlimit="2.613"
         id="path34"
         style="fill:#ffffff;fill-opacity:0.70380759;stroke:#ffffff;stroke-width:0.0294648;stroke-miterlimit:2.613;stroke-dasharray:none;stroke-opacity:0.70323652" />
      <path
         d="m 1.5064182,0.4481705 c -0.00554,0 -0.047043,0.008307 -0.08857,0.0581306 -0.044278,0.0498223 -0.0526,0.13286373 -0.0526,0.13564284 l -0.00275,0.0110729 0.011073,-0.002764 c 0.00275,-0.002764 0.052572,-0.024911 0.099643,-0.0830414 0.047043,-0.0581304 0.038748,-0.11071707 0.038748,-0.11348185 v -0.005531 h -0.00554 z M 1.4289342,0.517374 c 0.027661,-0.035984 0.058116,-0.0470578 0.069189,-0.0525872 0,0.0166032 -0.00277,0.0525872 -0.035984,0.0941147 -0.030455,0.038749 -0.06366,0.0608956 -0.080276,0.0719685 0.00275,-0.0249393 0.016617,-0.0802911 0.047071,-0.113496 z"
         fill="#4c8175"
         stroke="#4c8175"
         stroke-width="1.25113"
         stroke-linecap="round"
         stroke-linejoin="round"
         stroke-miterlimit="2.613"
         id="path36"
         style="fill:#ffffff;fill-opacity:0.70380759;stroke:#ffffff;stroke-width:0.0294648;stroke-miterlimit:2.613;stroke-dasharray:none;stroke-opacity:0.70323652" />
      <path
         d="m 0.16117319,1.1484729 c 0,0.3432253 0.18546365,0.6726123 0.48439425,0.8608562 l 0.0110738,0.00554 0.008307,-0.011073 c 0.002765,-0.00277 0.002765,-0.00554 0.002765,-0.00829 0,-0.00554 -0.00555,-0.013867 -0.008307,-0.016616 L 0.64278916,1.962268 C 0.57913016,1.89308 0.56529166,1.8266264 0.56529166,1.7768042 c 0,-0.058117 0.0193819,-0.094114 0.0221457,-0.096865 l 0.002765,-0.011073 -0.005531,-0.00829 C 0.46009375,1.5193952 0.39366953,1.3422247 0.39366953,1.1484658 c 0,-0.4262808 0.34323731,-0.77227055 0.77226597,-0.77227055 0.1190109,0 0.2325206,0.0276759 0.3377079,0.0774975 l 0.011073,0.00554 0.1550092,-0.177156 -0.016617,-0.0110747 A 1.0197787,1.0197852 0 0 0 1.1659455,0.14645834 C 0.61236231,0.14644362 0.161173,0.59763611 0.16117319,1.1484729 Z m 0.0332194,0 c 0,-0.53423359 0.43457231,-0.96880869 0.97156731,-0.96880869 0.1577879,0 0.3127969,0.0387487 0.4539395,0.11071754 C 1.5977679,0.315293 1.5174913,0.40664281 1.5064182,0.42048041 1.3984805,0.37064384 1.2849706,0.34296884 1.1659599,0.34296884 c -0.4456455,0 -0.80548527,0.36262085 -0.80548527,0.80550436 0,0.1992884 0.0664387,0.3819744 0.19375762,0.5259255 -0.008307,0.016588 -0.0221457,0.052573 -0.0221457,0.1024086 0,0.03875 0.0110728,0.0886 0.0387488,0.1384214 C 0.33556413,1.7297644 0.19439284,1.4446555 0.19439259,1.1484729 Z"
         fill="#4c8175"
         stroke="#4c8175"
         stroke-width="1.25113"
         stroke-linecap="round"
         stroke-linejoin="round"
         stroke-miterlimit="2.613"
         id="path38"
         style="fill:#ffffff;fill-opacity:0.70380759;stroke:#ffffff;stroke-width:0.0294648;stroke-miterlimit:2.613;stroke-dasharray:none;stroke-opacity:0.70323652" />
      <path
         d="M 1.5175056,0.42600987 A 0.78132966,0.78133453 0 0 0 1.1659742,0.34296893 c -0.44564564,0 -0.80548533,0.36262086 -0.80548533,0.80550437 0,0.2020531 0.0692035,0.3875039 0.19930135,0.5342196 l 0.0138384,0.013837 0.0608944,-0.091322 -0.002765,-0.00554 h -0.0138525 c 0.002765,-0.00277 0.002765,-0.00832 0.00555,-0.011074 -0.00555,-0.00554 -0.0110738,-0.011073 -0.0138384,-0.016616 -0.005531,0.00832 -0.0110738,0.013838 -0.0138385,0.016616 -0.0110738,-0.011073 -0.044279,-0.049822 -0.044279,-0.094115 0,-0.00277 0.002765,-0.00277 0.002765,-0.00554 -0.0581297,-0.099644 -0.0885713,-0.2131548 -0.0885713,-0.3404746 0,-0.38476752 0.31278253,-0.69755206 0.70031228,-0.69755206 0.0941,0 0.1854493,0.019381 0.2712693,0.0553659 0.00829,-0.0110737 0.016617,-0.0166032 0.027661,-0.0221466 -0.094114,-0.0442932 -0.1937577,-0.0664387 -0.2989306,-0.0664387 -0.40411785,0 -0.7307526,0.32940135 -0.7307526,0.73075716 0,0.1771422 0.0525863,0.3293875 0.16053835,0.459486 -0.00555,0.00829 -0.0166031,0.022161 -0.0249112,0.035985 C 0.45461988,1.5082731 0.39372493,1.3366464 0.39372493,1.1484309 c 0,-0.42628081 0.34323731,-0.77227044 0.77226597,-0.77227044 0.1107165,0 0.2214475,0.0249113 0.32387,0.0719682 -0.00554,0.008307 -0.00832,0.0166172 -0.013867,0.0276759 0.011073,-0.00554 0.019367,-0.0110737 0.02216,-0.0110737 0,0.0110737 0,0.035984 -0.013838,0.06366 h 0.00275 l 0.044276,-0.0968798 z m -0.00829,-0.15777468 -0.077512,0.0968795 c 0.00832,0.002765 0.013838,0.005531 0.02216,0.008307 l 0.077498,-0.0968795 c -0.00832,-0.002765 -0.013853,-0.00554 -0.022146,-0.008307 z M 1.3597291,0.22395706 1.3154219,0.3319099 c 0.00554,0.002765 0.013867,0.005531 0.02216,0.005531 L 1.38186,0.22672351 c -0.00829,0 -0.016617,-0.002765 -0.022131,-0.002765 z M 1.1797807,0.20181143 1.168722,0.32083709 H 1.190853 L 1.20194,0.20457603 c -0.00829,-0.002765 -0.013838,-0.002765 -0.022159,-0.002765 z m -0.1743619,0.0138385 0.022131,0.11626097 c 0.0083,-0.002765 0.013853,-0.002765 0.022145,-0.002765 L 1.0275531,0.21288424 c -0.00829,0 -0.013839,0.002765 -0.022131,0.002765 z"
         fill="#4c8175"
         stroke="#4c8175"
         stroke-width="1.25113"
         stroke-linecap="round"
         stroke-linejoin="round"
         stroke-miterlimit="2.613"
         id="path40"
         style="fill:#ffffff;fill-opacity:0.70380759;stroke:#ffffff;stroke-width:0.0294648;stroke-miterlimit:2.613;stroke-dasharray:none;stroke-opacity:0.70323652" />
      <path
         d="m 0.83657472,0.25994112 0.0525871,0.10795266 c 0.005531,-0.002765 0.0138385,-0.00554 0.0193669,-0.008307 L 0.85594159,0.25439993 c -0.005531,0.002765 -0.0138385,0.00554 -0.0193669,0.005541 z m -0.1605527,0.0802622 0.0774975,0.0885712 c 0.005531,-0.002765 0.0138385,-0.008307 0.0193819,-0.0110728 l -0.0802763,-0.0885712 c -0.005531,0.002775 -0.0110588,0.00554 -0.0166031,0.0110728 z m -0.14670065,0.10796681 0.0996578,0.0692035 c 0.005531,-0.00554 0.0110738,-0.008307 0.0166031,-0.0138525 L 0.5459388,0.43433174 c -0.00555,0.005531 -0.0110878,0.008297 -0.0166172,0.0138374 z M 0.40476699,0.58656326 0.52102731,0.6308418 c 0.002765,-0.008309 0.008307,-0.0138379 0.0138384,-0.0193675 L 0.41860508,0.56718183 c -0.00555,0.005543 -0.008307,0.0110729 -0.0138381,0.0193814 z m -0.0968931,0.15777466 0.12456853,0.0166028 c 0.005531,-0.005529 0.008307,-0.013838 0.0110747,-0.0193676 L 0.31896268,0.72495632 c -0.002775,0.005543 -0.00555,0.0110731 -0.0110888,0.0193816 z m -0.0608802,0.17439143 0.12455446,-0.0110729 c 0.002756,-0.008308 0.005531,-0.0166169 0.005531,-0.0221462 l -0.12455446,0.0110729 c -0.002756,0.008294 -0.005531,0.0166028 -0.005531,0.0221462 z M 0.21930456,1.1014153 0.34109444,1.0599019 c 0,-0.0083 0,-0.013852 0.002756,-0.022147 l -0.12455456,0.041513 z m 0.008297,0.1854504 0.11073094,-0.071954 v -0.024911 l -0.11348418,0.074733 c 0,0.00829 0.002747,0.016603 0.002747,0.022133 z m 0.0470719,0.1799208 0.0885713,-0.096865 c 0,-0.00832 -0.002756,-0.016616 -0.00555,-0.02491 l -0.0885713,0.099644 c 0,0.00829 0.002756,0.016602 0.00555,0.022131 z m 0.0858056,0.1743919 0.0608944,-0.1190261 c -0.002756,-0.00829 -0.00555,-0.016588 -0.0110747,-0.024911 l -0.0636609,0.1218052 c 0.002765,0.00829 0.008297,0.013823 0.0138385,0.022132 z m 0.10517296,0.143951 0.0332194,-0.1384216 c -0.002756,-0.00829 -0.0110728,-0.016588 -0.0138385,-0.022133 l -0.0359837,0.1411438 c 0.00555,0.00554 0.0110728,0.013867 0.0166028,0.019411 z M 1.4953495,0.53397664 c 0.00277,0.005543 0.00554,0.005543 0.00832,0.008308 0.00275,-0.002764 0.00554,-0.002764 0.00829,-0.002764 0.00277,-0.002764 0.00554,-0.002764 0.00829,-0.005543 -0.00829,-0.002764 -0.013838,-0.008308 -0.019367,-0.0138379 -0.00276,0.005531 -0.00276,0.0110587 -0.00554,0.0138379 z"
         fill="#4c8175"
         stroke="#4c8175"
         stroke-width="1.25113"
         stroke-linecap="round"
         stroke-linejoin="round"
         stroke-miterlimit="2.613"
         id="path42"
         style="fill:#ffffff;fill-opacity:0.70380759;stroke:#ffffff;stroke-width:0.0294648;stroke-miterlimit:2.613;stroke-dasharray:none;stroke-opacity:0.70323652" />
    </g>
  </g>
</svg>
